# xmcd
#
# Track frame offsets:
# 150
# 11010
# 24957
# 39567
# 51567
# 60522
# 72472
# 86505
# 95582
# 107222
#
# Disc length: 1583 seconds
#
#
# Revision: 0
# Processed by: cddbd v1.5.1PL2 Copyright (c) Steve Scherf et al.
# Submitted via: FreeRIP 2.944 
#
DISCID=83062d0a
DTITLE=Jeanne Pruett - 
DYEAR=1900
DGENRE=
TTITLE0=Satin Sheets
TTITLE1=Temporarily Yours
TTITLE2=Love Me
TTITLE3=Wild Side Of Life
TTITLE4=Love Is A Faded Rose
TTITLE5=Back To Back
TTITLE6=It's To Late
TTITLE7=I Ought To Feel Guilty
TTITLE8=Swing Low Sweet Chariot
TTITLE9=Star Studded Night
EXTD=
EXTT0=
EXTT1=
EXTT2=
EXTT3=
EXTT4=
EXTT5=
EXTT6=
EXTT7=
EXTT8=
EXTT9=
PLAYORDER=
